<?xml version="1.0" standalone="no"?>
<!DOCTYPE svg PUBLIC "-//W3C//DTD SVG 20010904//EN"
 "http://www.w3.org/TR/2001/REC-SVG-20010904/DTD/svg10.dtd">
<svg version="1.0" xmlns="http://www.w3.org/2000/svg"
 width="213.000000pt" height="237.000000pt" viewBox="0 0 213.000000 237.000000"
 preserveAspectRatio="xMidYMid meet">

<g transform="translate(0.000000,237.000000) scale(0.100000,-0.100000)"
fill="#000000" stroke="none">
<path d="M557 2182 c-3 -4 5 -40 18 -79 35 -110 33 -107 50 -93 8 7 15 20 15
29 1 9 7 30 14 46 l13 30 14 -50 c9 -29 21 -50 28 -50 14 0 61 122 61 158 0
31 -22 14 -37 -29 -24 -71 -25 -71 -42 -15 -9 30 -21 56 -27 58 -6 2 -17 -18
-24 -44 -7 -26 -16 -51 -20 -56 -3 -4 -14 18 -24 48 -16 51 -28 66 -39 47z"/>
<path d="M817 2184 c-4 -4 -7 -45 -7 -91 l0 -83 65 0 c37 0 65 4 65 10 0 6
-22 10 -50 10 -47 0 -50 2 -50 25 0 21 5 25 30 25 20 0 30 5 30 15 0 10 -10
15 -30 15 -25 0 -30 4 -30 25 0 23 3 25 51 25 36 0 49 4 47 13 -5 13 -109 23
-121 11z"/>
<path d="M988 2184 c-5 -4 -8 -45 -8 -91 l0 -83 58 0 c32 0 63 5 70 12 17 17
15 48 -5 70 -9 10 -11 18 -6 18 17 0 22 37 9 56 -13 18 -105 32 -118 18z m91
-37 c15 -19 4 -27 -36 -27 -31 0 -44 16 -26 33 11 12 50 8 62 -6z m9 -84 c3
-21 -1 -23 -37 -23 -37 0 -41 2 -41 26 0 23 3 25 38 22 30 -2 38 -7 40 -25z"/>
<path d="M1285 2178 c-33 -19 -44 -41 -45 -84 0 -70 67 -111 129 -79 53 27 67
95 29 140 -26 30 -83 41 -113 23z m85 -38 c27 -27 25 -56 -5 -85 -28 -29 -42
-31 -73 -9 -15 10 -22 25 -22 46 0 61 59 89 100 48z"/>
<path d="M1464 2177 c-9 -24 0 -172 11 -172 6 0 11 17 13 37 3 33 6 37 35 40
42 4 41 22 0 26 -27 3 -33 7 -33 28 0 22 4 24 51 24 36 0 49 4 47 13 -7 18
-117 22 -124 4z"/>
<path d="M402 1854 c-12 -8 -22 -23 -21 -32 0 -13 3 -11 9 5 11 28 30 32 155
36 l100 3 -110 2 c-86 2 -115 -1 -133 -14z"/>
<path d="M1015 1856 c-16 -7 -41 -26 -55 -42 -24 -27 -23 -27 12 3 44 38 96
50 146 35 24 -8 32 -8 24 0 -17 17 -94 20 -127 4z"/>
<path d="M1462 1858 c-7 -7 -12 -16 -12 -22 0 -5 6 -2 13 7 11 16 29 17 156
15 170 -4 181 -9 142 -77 -28 -50 -21 -55 8 -5 25 42 26 57 5 78 -13 13 -42
16 -158 16 -97 0 -146 -4 -154 -12z"/>
<path d="M661 1843 c7 -12 15 -20 18 -17 3 2 -3 12 -13 22 -17 16 -18 16 -5
-5z"/>
<path d="M1175 1820 c10 -11 20 -20 23 -20 3 0 -3 9 -13 20 -10 11 -20 20 -23
20 -3 0 3 -9 13 -20z"/>
<path d="M1450 1813 c0 -6 9 -28 21 -47 23 -39 37 -50 18 -13 -7 12 -18 33
-26 47 -7 14 -13 20 -13 13z"/>
<path d="M684 1715 c0 -55 1 -76 3 -47 2 29 2 74 0 100 -2 26 -3 2 -3 -53z"/>
<path d="M924 1754 c-18 -72 20 -151 87 -180 l40 -18 -3 -65 -3 -64 -40 -12
c-22 -6 -53 -20 -68 -29 l-27 -18 -87 80 c-102 92 -138 131 -146 152 -4 12 -6
12 -6 -2 -1 -9 51 -65 115 -125 97 -92 113 -111 101 -122 -12 -10 -36 8 -138
104 l-124 115 -107 0 c-99 0 -108 2 -122 22 -9 12 -16 17 -16 11 0 -6 7 -19
16 -27 12 -13 38 -16 121 -16 l106 0 46 -42 c25 -23 81 -75 124 -115 l78 -74
-20 -43 c-12 -23 -21 -48 -21 -54 0 -8 -26 -12 -85 -12 l-85 0 30 59 c34 64
33 96 -2 128 -18 16 -41 18 -248 18 -208 0 -230 -2 -248 -19 -47 -42 -41 -63
68 -254 122 -211 131 -222 181 -222 44 0 64 20 124 128 l40 72 113 0 c87 0
112 -3 112 -14 0 -7 12 -35 26 -61 l25 -48 -53 -56 c-29 -31 -82 -86 -117
-122 l-63 -67 -36 24 c-25 18 -47 24 -81 23 l-46 -2 52 -6 c29 -4 65 -16 82
-29 l30 -22 118 126 c98 104 121 123 131 112 9 -12 -7 -35 -89 -124 l-101
-109 106 109 106 108 49 -21 c27 -11 57 -21 65 -21 13 0 16 -13 18 -57 l2 -58
3 53 c3 36 8 52 18 52 10 0 15 -16 17 -57 l3 -58 48 -1 47 -1 -45 4 -45 4 0
60 c0 50 3 59 18 59 10 0 42 12 71 26 l53 27 46 -44 c126 -118 158 -144 67
-54 l-102 100 36 72 36 72 73 1 72 0 0 -60 c0 -66 18 -113 49 -130 12 -6 95
-10 198 -10 199 0 213 4 239 66 19 46 20 312 0 357 -28 67 -41 72 -215 75
-236 5 -271 -13 -271 -139 l0 -69 -75 0 c-48 0 -75 4 -75 11 0 6 -11 34 -25
61 l-25 51 42 48 c24 27 85 95 137 151 52 57 70 78 40 48 -30 -30 -93 -96
-141 -147 -72 -77 -88 -90 -98 -78 -10 12 12 41 125 162 l138 148 -145 -150
c-127 -131 -147 -148 -161 -136 -9 7 -36 19 -59 26 l-43 12 -3 66 c-3 59 -1
66 18 72 12 4 19 9 17 12 -3 2 -15 0 -26 -7 -18 -9 -21 -20 -21 -75 0 -51 -3
-65 -15 -65 -12 0 -15 14 -15 65 l0 64 -46 23 c-62 31 -87 75 -81 146 4 57 1
66 -9 26z m-306 -422 c-13 -32 -114 -202 -120 -202 -4 0 -17 18 -28 39 -11 22
-23 42 -28 45 -4 2 -18 -15 -31 -40 -13 -24 -27 -44 -30 -44 -7 0 -121 194
-121 205 0 3 81 5 181 5 99 0 179 -4 177 -8z m484 -13 c-3 -20 32 -31 47 -16
7 7 17 5 31 -8 13 -12 17 -22 11 -28 -14 -14 6 -48 24 -41 8 4 15 2 15 -2 0
-5 3 -19 6 -31 5 -17 2 -23 -9 -23 -22 0 -31 -32 -13 -46 14 -9 14 -13 0 -33
-12 -16 -19 -19 -29 -11 -16 13 -40 -13 -31 -35 3 -10 -3 -17 -21 -21 -17 -5
-28 -3 -31 4 -6 18 -52 15 -52 -3 0 -11 -6 -12 -22 -6 -13 5 -23 15 -23 23 0
27 -26 50 -41 37 -11 -9 -16 -5 -26 16 -9 21 -9 28 0 34 15 9 6 37 -13 44 -19
8 -7 57 15 57 21 0 36 30 20 40 -7 4 -3 13 10 25 14 13 24 15 31 8 16 -16 49
-3 49 19 0 15 6 19 28 16 18 -2 26 -8 24 -19z m776 -26 l-3 -48 -57 -3 -58 -3
0 -114 0 -115 -45 0 c-38 0 -45 3 -45 20 0 12 7 20 18 20 16 1 16 1 0 11 -10
5 -18 17 -18 24 0 8 8 15 18 15 16 1 16 1 0 11 -10 5 -18 17 -18 24 0 8 8 15
18 15 16 1 16 1 0 11 -22 12 -24 39 -3 39 8 0 15 5 15 10 0 6 -7 10 -15 10 -8
0 -15 4 -15 10 0 5 -26 10 -57 12 -58 3 -58 3 -61 36 -6 63 -8 62 168 62 l161
0 -3 -47z m-239 -172 l24 -19 -31 -16 -32 -17 0 36 c0 40 5 42 39 16z"/>
<path d="M389 1289 c-21 -18 -21 -20 -4 -13 43 16 82 16 98 0 9 -9 18 -12 22
-7 8 14 -35 41 -66 41 -15 0 -37 -9 -50 -21z"/>
<path d="M417 1264 c-13 -14 -7 -19 23 -20 19 -1 29 3 27 10 -4 13 -40 20 -50
10z"/>
<path d="M1222 1715 c0 -16 2 -22 5 -12 2 9 2 23 0 30 -3 6 -5 -1 -5 -18z"/>
<path d="M1715 1700 c-9 -16 -13 -30 -11 -30 3 0 12 14 21 30 9 17 13 30 11
30 -3 0 -12 -13 -21 -30z"/>
<path d="M1506 1707 c3 -10 9 -15 12 -12 3 3 0 11 -7 18 -10 9 -11 8 -5 -6z"/>
<path d="M1210 1665 c0 -8 -14 -31 -31 -52 l-32 -38 37 37 c31 32 47 68 31 68
-3 0 -5 -7 -5 -15z"/>
<path d="M1666 1615 c-29 -49 -58 -58 -83 -27 -13 15 -13 15 -3 -5 22 -47 68
-24 109 55 21 40 4 23 -23 -23z"/>
<path d="M1281 1006 c2 -2 53 -49 112 -105 l109 -101 134 0 c152 0 160 -4 130
-68 -14 -31 -14 -34 -1 -17 23 29 29 63 15 80 -10 12 -40 15 -145 15 l-132 0
-107 100 c-59 55 -110 100 -113 100 -4 0 -4 -2 -2 -4z"/>
<path d="M937 792 c-14 -15 -17 -41 -17 -135 0 -157 0 -157 155 -157 153 0
155 2 155 155 0 86 -4 116 -16 131 -15 18 -15 18 -5 -3 6 -12 11 -71 11 -131
0 -143 1 -142 -148 -142 -145 0 -142 -3 -142 149 0 84 4 122 13 129 7 6 33 12
57 15 l45 4 -46 1 c-33 2 -50 -3 -62 -16z"/>
<path d="M436 779 c-38 -30 -56 -71 -55 -126 l2 -48 6 55 c8 67 23 95 64 120
18 11 27 20 21 20 -6 0 -23 -9 -38 -21z"/>
<path d="M1450 756 c0 -12 97 -183 127 -223 13 -18 32 -33 41 -33 12 0 10 4
-7 13 -14 7 -52 61 -92 132 -38 66 -69 116 -69 111z"/>
<path d="M686 731 c-10 -11 -16 -28 -13 -38 4 -17 5 -17 6 1 0 11 8 28 18 38
9 10 14 18 11 18 -3 0 -13 -9 -22 -19z"/>
<path d="M1737 683 c-2 -5 -17 -30 -32 -58 -16 -27 -24 -45 -18 -40 14 14 66
105 60 105 -3 0 -8 -3 -10 -7z"/>
<path d="M671 627 c-3 -56 -50 -98 -128 -116 -29 -7 -32 -9 -13 -10 64 -3 159
79 147 126 -4 17 -5 17 -6 0z"/>
<path d="M390 593 c1 -23 73 -83 100 -83 8 1 1 7 -15 14 -17 7 -43 28 -58 45
-15 18 -27 29 -27 24z"/>
<path d="M1655 540 c-9 -16 -13 -30 -11 -30 3 0 12 14 21 30 9 17 13 30 11 30
-3 0 -12 -13 -21 -30z"/>
<path d="M754 357 c-9 -24 0 -172 11 -172 6 0 11 17 13 38 3 37 4 37 47 37 43
0 44 0 47 -37 6 -72 23 -33 23 52 0 50 -4 85 -10 85 -5 0 -11 -15 -13 -35 -3
-34 -4 -35 -48 -35 -44 0 -44 0 -44 34 0 36 -16 57 -26 33z"/>
<path d="M960 275 c0 -73 3 -96 13 -92 8 2 12 30 12 92 0 62 -4 90 -12 93 -10
3 -13 -20 -13 -93z"/>
<path d="M1044 357 c-10 -27 1 -170 13 -174 8 -3 13 15 15 59 l3 63 48 -62
c27 -35 53 -63 58 -63 6 0 9 37 7 93 -3 103 -20 121 -28 31 l-5 -57 -48 62
c-27 33 -50 61 -53 61 -3 0 -7 -6 -10 -13z"/>
<path d="M1284 356 c-56 -25 -69 -110 -22 -152 24 -23 97 -26 121 -5 10 8 17
28 17 47 0 33 -1 34 -40 34 -22 0 -40 -4 -40 -10 0 -5 11 -10 25 -10 36 0 35
-37 -2 -46 -31 -8 -53 3 -73 39 -13 24 -13 28 6 54 21 27 35 31 88 21 33 -5
29 19 -5 31 -39 13 -37 13 -75 -3z"/>
<path d="M1474 360 c-56 -22 -42 -70 27 -98 31 -13 49 -27 46 -34 -4 -13 -51
-16 -92 -7 -13 2 -20 -1 -20 -11 0 -10 16 -18 47 -24 58 -11 98 9 98 50 0 21
-9 29 -55 49 -30 14 -55 29 -55 34 0 15 36 23 75 15 42 -7 49 11 9 26 -30 12
-51 12 -80 0z"/>
<path d="M552 348 c3 -7 19 -14 36 -16 l31 -3 3 -71 c2 -46 7 -73 16 -76 9 -3
12 16 12 72 l0 75 32 3 c17 2 33 9 36 16 3 9 -18 12 -83 12 -65 0 -86 -3 -83
-12z"/>
</g>
</svg>
